<svg width="512" height="512" viewBox="0 0 512 512" fill="none" xmlns="http://www.w3.org/2000/svg">
<path d="M312.391 256L503.82 64.562C509.086 59.2921 511.992 52.2615 512 44.7646C512 37.2636 509.095 30.2247 503.82 24.9631L487.045 8.19201C481.771 2.90967 474.741 0.0166626 467.235 0.0166626C459.743 0.0166626 452.712 2.90967 447.438 8.19201L256.008 199.618L64.5703 8.19201C59.3046 2.90967 52.2698 0.0166626 44.7688 0.0166626C37.2761 0.0166626 30.2413 2.90967 24.9756 8.19201L8.192 24.9631C-2.73067 35.8858 -2.73067 53.6518 8.192 64.562L199.626 256L8.192 447.43C2.92215 452.708 0.020813 459.739 0.020813 467.235C0.020813 474.732 2.92215 481.763 8.192 487.037L24.9714 503.808C30.2371 509.086 37.2761 511.983 44.7646 511.983C52.2656 511.983 59.3004 509.086 64.5661 503.808L256.004 312.378L447.434 503.808C452.708 509.086 459.739 511.983 467.231 511.983H467.24C474.736 511.983 481.767 509.086 487.041 503.808L503.816 487.037C509.082 481.767 511.987 474.732 511.987 467.235C511.987 459.739 509.082 452.708 503.816 447.434L312.391 256Z" fill="#2FA4FF"/>
</svg>
