<svg width="2772" height="512" viewBox="0 0 2772 512" fill="none" xmlns="http://www.w3.org/2000/svg">
<path d="M0.0449219 255.992C0.0449219 357.315 58.9248 444.889 144.321 486.368L22.2013 151.811C8.01395 183.637 0.0449219 218.873 0.0449219 255.992Z" fill="#BEBEBE"/>
<path d="M260.536 278.379L183.72 501.57C206.669 508.317 230.906 512 256.044 512C285.847 512 314.445 506.847 341.053 497.491C340.376 496.385 339.74 495.237 339.228 493.965L260.536 278.379Z" fill="#BEBEBE"/>
<path d="M428.868 243.085C428.868 211.433 417.489 189.533 407.761 172.489C394.771 151.374 382.599 133.52 382.599 112.446C382.599 88.9035 400.445 66.9955 425.59 66.9955C426.729 66.9955 427.803 67.1524 428.893 67.2102C383.383 25.4753 322.686 0 256.044 0C166.592 0 87.9263 45.8886 42.1602 115.378C48.172 115.568 53.8288 115.692 58.6267 115.692C85.3911 115.692 126.863 112.438 126.863 112.438C140.654 111.612 142.272 131.902 128.482 133.52C128.482 133.52 114.616 135.155 99.1821 135.973L192.407 413.245L248.439 245.232L208.576 135.973C194.769 135.155 181.705 133.52 181.705 133.52C167.914 132.703 169.524 111.621 183.34 112.438C183.34 112.438 225.613 115.692 250.767 115.692C277.54 115.692 318.995 112.438 318.995 112.438C332.802 111.612 334.421 131.902 320.622 133.52C320.622 133.52 306.741 135.155 291.331 135.973L383.846 411.139L409.405 325.828C420.429 290.402 428.868 264.984 428.868 243.085Z" fill="#BEBEBE"/>
<path d="M482.423 159.499C482.423 185.47 477.567 214.67 462.942 251.194L384.755 477.251C460.861 432.89 512.045 350.428 512.045 256C512.045 211.482 500.674 169.64 480.689 133.174C481.804 141.332 482.423 150.069 482.423 159.499Z" fill="#BEBEBE"/>
<path d="M382.607 112.438C382.607 88.8952 400.453 66.9873 425.598 66.9873C426.738 66.9873 427.811 67.1442 428.901 67.202C383.383 25.4753 322.686 0 256.044 0C166.592 0 87.9263 45.8886 42.1602 115.378C48.172 115.568 53.8288 115.692 58.6267 115.692C85.3911 115.692 126.863 112.438 126.863 112.438C140.654 111.612 142.272 131.902 128.482 133.52C128.482 133.52 114.616 135.155 99.1821 135.973L134.733 241.706C158.921 250.244 185.124 254.943 212.491 254.943C223.879 254.943 235.068 254.125 246.011 252.565L248.447 245.24L208.584 135.981C194.777 135.164 181.714 133.529 181.714 133.529C167.922 132.711 169.532 111.629 183.349 112.446C183.349 112.446 225.621 115.7 250.775 115.7C277.548 115.7 319.003 112.446 319.003 112.446C332.81 111.621 334.429 131.91 320.63 133.529C320.63 133.529 306.749 135.164 291.339 135.981L322.141 227.61C353.406 210.797 379.898 187.056 399.214 158.574C389.907 143.124 382.607 128.739 382.607 112.438Z" fill="#BEBEBE"/>
<path d="M256.044 0C175.718 0 104.17 37.0775 57.2314 94.9482C98.4309 103.512 143.677 108.26 191.16 108.26C281.074 108.26 362.995 91.2734 424.592 63.4116C379.568 23.9641 320.614 0 256.044 0Z" fill="#BEBEBE"/>
<path d="M582 140H671.1C726.9 140 754.8 158.3 754.8 194.9C754.8 209.7 750.1 221.5 740.7 230.3C731.3 239.1 716.3 245 695.7 248C739.1 251.8 760.8 270.9 760.8 305.3C760.8 321.3 755.3 334.7 744.3 345.5C736.3 353.5 726.7 358.8 715.5 361.4C704.3 363.8 687.8 365 666 365H582V353.9L610.8 347.3V158L582 151.1V140ZM642 353H665.7C687.1 353 702.6 349.2 712.2 341.6C721.8 334 726.6 321.7 726.6 304.7C726.6 287.7 721.9 275.3 712.5 267.5C703.3 259.5 688.6 255.5 668.4 255.5H642V353ZM642 242.9H666C702.8 242.9 721.2 227.1 721.2 195.5C721.2 177.5 715 165.6 702.6 159.8C692 154.6 677.3 152 658.5 152H642V242.9ZM902.876 293.3C902.876 271.7 899.576 255.7 892.976 245.3C886.376 234.7 875.576 229.4 860.576 229.4C845.776 229.4 834.776 234.5 827.576 244.7C820.576 254.7 817.076 270.8 817.076 293C817.076 315.2 820.576 331.2 827.576 341C834.576 350.6 845.276 355.4 859.676 355.4C874.276 355.4 885.076 350.5 892.076 340.7C899.276 330.7 902.876 314.9 902.876 293.3ZM786.776 293.3C786.776 269.7 793.476 251.1 806.876 237.5C820.276 223.7 837.976 216.8 859.976 216.8C882.176 216.8 899.876 223.5 913.076 236.9C926.276 250.3 932.876 269 932.876 293C932.876 317 926.276 335.5 913.076 348.5C899.876 361.3 882.076 367.7 859.676 367.7C837.476 367.7 819.776 361.2 806.576 348.2C793.376 335.2 786.776 316.9 786.776 293.3ZM1077.49 293.3C1077.49 271.7 1074.19 255.7 1067.59 245.3C1060.99 234.7 1050.19 229.4 1035.19 229.4C1020.39 229.4 1009.39 234.5 1002.19 244.7C995.185 254.7 991.685 270.8 991.685 293C991.685 315.2 995.185 331.2 1002.19 341C1009.19 350.6 1019.89 355.4 1034.29 355.4C1048.89 355.4 1059.69 350.5 1066.69 340.7C1073.89 330.7 1077.49 314.9 1077.49 293.3ZM961.385 293.3C961.385 269.7 968.085 251.1 981.485 237.5C994.885 223.7 1012.59 216.8 1034.59 216.8C1056.79 216.8 1074.49 223.5 1087.69 236.9C1100.89 250.3 1107.49 269 1107.49 293C1107.49 317 1100.89 335.5 1087.69 348.5C1074.49 361.3 1056.69 367.7 1034.29 367.7C1012.09 367.7 994.385 361.2 981.185 348.2C967.985 335.2 961.385 316.9 961.385 293.3ZM1141.69 140H1191.79V347.3L1216.09 353.9V365H1139.89V353.9L1163.29 347.6V154.4L1141.69 150.8V140Z" fill="#2FA4FF"/>
<path d="M2055 140H2144.1C2199.9 140 2227.8 158.3 2227.8 194.9C2227.8 209.7 2223.1 221.5 2213.7 230.3C2204.3 239.1 2189.3 245 2168.7 248C2212.1 251.8 2233.8 270.9 2233.8 305.3C2233.8 321.3 2228.3 334.7 2217.3 345.5C2209.3 353.5 2199.7 358.8 2188.5 361.4C2177.3 363.8 2160.8 365 2139 365H2055V353.9L2083.8 347.3V158L2055 151.1V140ZM2115 353H2138.7C2160.1 353 2175.6 349.2 2185.2 341.6C2194.8 334 2199.6 321.7 2199.6 304.7C2199.6 287.7 2194.9 275.3 2185.5 267.5C2176.3 259.5 2161.6 255.5 2141.4 255.5H2115V353ZM2115 242.9H2139C2175.8 242.9 2194.2 227.1 2194.2 195.5C2194.2 177.5 2188 165.6 2175.6 159.8C2165 154.6 2150.3 152 2131.5 152H2115V242.9ZM2265.48 140H2315.58V347.3L2339.88 353.9V365H2263.68V353.9L2287.08 347.6V154.4L2265.48 150.8V140ZM2479 293.3C2479 271.7 2475.7 255.7 2469.1 245.3C2462.5 234.7 2451.7 229.4 2436.7 229.4C2421.9 229.4 2410.9 234.5 2403.7 244.7C2396.7 254.7 2393.2 270.8 2393.2 293C2393.2 315.2 2396.7 331.2 2403.7 341C2410.7 350.6 2421.4 355.4 2435.8 355.4C2450.4 355.4 2461.2 350.5 2468.2 340.7C2475.4 330.7 2479 314.9 2479 293.3ZM2362.9 293.3C2362.9 269.7 2369.6 251.1 2383 237.5C2396.4 223.7 2414.1 216.8 2436.1 216.8C2458.3 216.8 2476 223.5 2489.2 236.9C2502.4 250.3 2509 269 2509 293C2509 317 2502.4 335.5 2489.2 348.5C2476 361.3 2458.2 367.7 2435.8 367.7C2413.6 367.7 2395.9 361.2 2382.7 348.2C2369.5 335.2 2362.9 316.9 2362.9 293.3ZM2564.81 382.1C2555.21 391.7 2550.41 402.2 2550.41 413.6C2550.41 425 2554.91 434.4 2563.91 441.8C2573.11 449.4 2586.01 453.2 2602.61 453.2C2619.41 453.2 2633.21 449.5 2644.01 442.1C2655.01 434.9 2660.51 425.4 2660.51 413.6C2660.51 399.6 2650.91 391.8 2631.71 390.2L2589.11 386.9C2578.51 386.1 2570.41 384.5 2564.81 382.1ZM2602.01 228.2C2580.01 228.2 2569.01 243.1 2569.01 272.9C2569.01 288.3 2571.71 299.6 2577.11 306.8C2582.51 314 2590.91 317.6 2602.31 317.6C2624.91 317.6 2636.21 303 2636.21 273.8C2636.21 257.6 2633.51 246 2628.11 239C2622.71 231.8 2614.01 228.2 2602.01 228.2ZM2682.11 220.1V230.6L2655.11 241.1C2661.11 249.9 2664.11 260.6 2664.11 273.2C2664.11 290.2 2658.21 303.7 2646.41 313.7C2634.61 323.7 2619.61 328.7 2601.41 328.7C2595.61 328.7 2588.91 327.9 2581.31 326.3C2571.51 331.7 2566.61 337.5 2566.61 343.7C2566.61 349.7 2568.31 353.9 2571.71 356.3C2575.31 358.7 2583.41 360.5 2596.01 361.7L2625.71 364.1C2644.11 364.5 2657.31 368.1 2665.31 374.9C2673.31 381.7 2677.31 391.9 2677.31 405.5C2677.31 423.9 2670.11 438.2 2655.71 448.4C2641.31 458.6 2623.01 463.7 2600.81 463.7C2578.61 463.7 2561.41 459.6 2549.21 451.4C2537.01 443.2 2530.91 431.5 2530.91 416.3C2530.91 401.3 2540.01 388.9 2558.21 379.1C2550.21 372.3 2546.21 364.7 2546.21 356.3C2546.21 347.9 2548.11 341.5 2551.91 337.1C2555.71 332.7 2562.61 328.2 2572.61 323.6C2551.81 313 2541.41 296.1 2541.41 272.9C2541.41 255.7 2546.91 242 2557.91 231.8C2568.91 221.4 2583.71 216.2 2602.31 216.2C2611.31 216.2 2620.91 217.5 2631.11 220.1H2682.11Z" fill="#BEBEBE"/>
<path d="M1254 140H1344.3C1376.1 140 1398.9 145.1 1412.7 155.3C1426.5 165.3 1433.4 181.1 1433.4 202.7C1433.4 228.9 1424.5 246.6 1406.7 255.8C1390.9 263.8 1369.3 267.8 1341.9 267.8H1314.6V347L1345.2 353.9V365H1254V353.9L1283.1 347V158L1254 151.1V140ZM1314.6 255.8H1348.2C1365.2 255.8 1377.8 251.6 1386 243.2C1394.4 234.8 1398.6 221.7 1398.6 203.9C1398.6 186.1 1394.4 173 1386 164.6C1377.8 156.2 1365.2 152 1348.2 152H1314.6V255.8ZM1460.33 219.5H1510.13V262.1C1514.13 250.1 1520.33 240.1 1528.73 232.1C1537.13 223.9 1547.33 219.8 1559.33 219.8C1566.73 219.8 1575.63 222.5 1586.03 227.9V263.9H1574.33L1565.03 239.3C1561.23 237.3 1556.93 236.3 1552.13 236.3C1543.33 236.3 1534.43 241.5 1525.43 251.9C1516.63 262.1 1512.23 273.1 1512.23 284.9V347.6L1534.43 353.9V365H1460.93V353.9L1483.73 347.6V234.5L1460.33 230.3V219.5ZM1733.72 314.3V348.5C1722.32 361.5 1703.92 368 1678.52 368C1653.32 368 1634.62 361.4 1622.42 348.2C1610.22 334.8 1604.12 316.3 1604.12 292.7C1604.12 269.1 1610.52 250.6 1623.32 237.2C1636.32 223.6 1653.72 216.8 1675.52 216.8C1688.52 216.8 1699.32 219.2 1707.92 224C1716.72 228.8 1723.02 235.2 1726.82 243.2C1732.82 256.4 1735.82 270.3 1735.82 284.9H1634.12C1634.12 307.5 1636.72 324.7 1641.92 336.5C1647.92 349.9 1659.72 356.6 1677.32 356.6C1683.52 356.6 1689.42 355.8 1695.02 354.2C1700.82 352.4 1705.02 350.7 1707.62 349.1C1710.22 347.5 1711.52 346.5 1711.52 346.1L1722.62 314.3H1733.72ZM1674.92 228.5C1657.92 228.5 1646.32 236.3 1640.12 251.9C1637.12 258.9 1635.32 266.6 1634.72 275H1709.72C1709.72 244 1698.12 228.5 1674.92 228.5ZM1882.45 322.1C1882.45 335.5 1877.45 346.3 1867.45 354.5C1857.45 362.5 1842.05 366.5 1821.25 366.5C1800.65 366.5 1784.55 361 1772.95 350V315.2H1784.65L1793.35 344.6C1800.35 351.6 1811.55 355.1 1826.95 355.1C1837.75 355.1 1845.95 352.7 1851.55 347.9C1857.15 343.1 1859.95 337.3 1859.95 330.5C1859.95 323.7 1857.05 318.4 1851.25 314.6C1845.45 310.8 1833.95 306.2 1816.75 300.8C1799.75 295.2 1787.85 289.4 1781.05 283.4C1774.25 277.4 1770.85 268.5 1770.85 256.7C1770.85 244.7 1775.75 234.8 1785.55 227C1795.35 219.2 1809.75 215.3 1828.75 215.3C1847.75 215.3 1863.05 219.8 1874.65 228.8V263.3H1862.95L1853.65 234.5C1847.05 229.3 1838.25 226.7 1827.25 226.7C1805.45 226.7 1794.55 234.5 1794.55 250.1C1794.55 255.9 1797.65 261 1803.85 265.4C1810.25 269.6 1821.85 274.3 1838.65 279.5C1855.45 284.7 1866.95 290.6 1873.15 297.2C1879.35 303.6 1882.45 311.9 1882.45 322.1ZM2023.37 322.1C2023.37 335.5 2018.37 346.3 2008.37 354.5C1998.37 362.5 1982.97 366.5 1962.17 366.5C1941.57 366.5 1925.47 361 1913.87 350V315.2H1925.57L1934.27 344.6C1941.27 351.6 1952.47 355.1 1967.87 355.1C1978.67 355.1 1986.87 352.7 1992.47 347.9C1998.07 343.1 2000.87 337.3 2000.87 330.5C2000.87 323.7 1997.97 318.4 1992.17 314.6C1986.37 310.8 1974.87 306.2 1957.67 300.8C1940.67 295.2 1928.77 289.4 1921.97 283.4C1915.17 277.4 1911.77 268.5 1911.77 256.7C1911.77 244.7 1916.67 234.8 1926.47 227C1936.27 219.2 1950.67 215.3 1969.67 215.3C1988.67 215.3 2003.97 219.8 2015.57 228.8V263.3H2003.87L1994.57 234.5C1987.97 229.3 1979.17 226.7 1968.17 226.7C1946.37 226.7 1935.47 234.5 1935.47 250.1C1935.47 255.9 1938.57 261 1944.77 265.4C1951.17 269.6 1962.77 274.3 1979.57 279.5C1996.37 284.7 2007.87 290.6 2014.07 297.2C2020.27 303.6 2023.37 311.9 2023.37 322.1Z" fill="#BEBEBE"/>
<rect x="0.5" y="0.5" width="2771" height="511" stroke="black"/>
</svg>
