<svg width="2017" height="512" viewBox="0 0 2017 512" fill="none" xmlns="http://www.w3.org/2000/svg">
<g clip-path="url(#clip0_194_13)">
<path d="M0.0327148 255.992C0.0327148 357.315 58.9126 444.889 144.309 486.368L22.1891 151.811C8.00175 183.637 0.0327148 218.873 0.0327148 255.992Z" fill="#BEBEBE"/>
<path d="M260.525 278.379L183.708 501.57C206.658 508.317 230.895 512 256.033 512C285.836 512 314.434 506.847 341.041 497.491C340.364 496.385 339.728 495.237 339.216 493.965L260.525 278.379Z" fill="#BEBEBE"/>
<path d="M428.857 243.085C428.857 211.433 417.477 189.533 407.749 172.489C394.76 151.374 382.587 133.52 382.587 112.446C382.587 88.9035 400.433 66.9955 425.579 66.9955C426.718 66.9955 427.792 67.1524 428.882 67.2102C383.371 25.4753 322.674 0 256.032 0C166.58 0 87.9146 45.8886 42.1484 115.378C48.1603 115.568 53.8171 115.692 58.615 115.692C85.3794 115.692 126.851 112.438 126.851 112.438C140.643 111.612 142.261 131.902 128.47 133.52C128.47 133.52 114.605 135.155 99.1703 135.973L192.395 413.245L248.427 245.232L208.565 135.973C194.757 135.155 181.693 133.52 181.693 133.52C167.902 132.703 169.512 111.621 183.328 112.438C183.328 112.438 225.601 115.692 250.755 115.692C277.528 115.692 318.983 112.438 318.983 112.438C332.791 111.612 334.41 131.902 320.61 133.52C320.61 133.52 306.729 135.155 291.319 135.973L383.834 411.139L409.393 325.828C420.417 290.402 428.857 264.984 428.857 243.085Z" fill="#BEBEBE"/>
<path d="M482.411 159.499C482.411 185.47 477.555 214.67 462.93 251.194L384.743 477.251C460.849 432.89 512.033 350.428 512.033 256C512.033 211.482 500.661 169.64 480.677 133.174C481.792 141.332 482.411 150.069 482.411 159.499Z" fill="#BEBEBE"/>
<path d="M382.595 112.438C382.595 88.8952 400.441 66.9873 425.587 66.9873C426.727 66.9873 427.8 67.1442 428.89 67.202C383.371 25.4753 322.674 0 256.032 0C166.58 0 87.9146 45.8886 42.1484 115.378C48.1603 115.568 53.8171 115.692 58.615 115.692C85.3794 115.692 126.851 112.438 126.851 112.438C140.643 111.612 142.261 131.902 128.47 133.52C128.47 133.52 114.605 135.155 99.1703 135.973L134.721 241.706C158.909 250.244 185.112 254.943 212.479 254.943C223.867 254.943 235.057 254.125 245.999 252.565L248.435 245.24L208.573 135.981C194.765 135.164 181.702 133.529 181.702 133.529C167.91 132.711 169.52 111.629 183.337 112.446C183.337 112.446 225.609 115.7 250.763 115.7C277.536 115.7 318.991 112.446 318.991 112.446C332.799 111.621 334.418 131.91 320.618 133.529C320.618 133.529 306.737 135.164 291.327 135.981L322.129 227.61C353.394 210.797 379.886 187.056 399.202 158.574C389.895 143.124 382.595 128.739 382.595 112.438Z" fill="#BEBEBE"/>
<path d="M256.033 0C175.706 0 104.159 37.0775 57.2197 94.9482C98.4191 103.512 143.665 108.26 191.148 108.26C281.062 108.26 362.983 91.2734 424.58 63.4116C379.556 23.9641 320.603 0 256.033 0Z" fill="#BEBEBE"/>
<path d="M563 140H652.1C707.9 140 735.8 158.3 735.8 194.9C735.8 209.7 731.1 221.5 721.7 230.3C712.3 239.1 697.3 245 676.7 248C720.1 251.8 741.8 270.9 741.8 305.3C741.8 321.3 736.3 334.7 725.3 345.5C717.3 353.5 707.7 358.8 696.5 361.4C685.3 363.8 668.8 365 647 365H563V353.9L591.8 347.3V158L563 151.1V140ZM623 353H646.7C668.1 353 683.6 349.2 693.2 341.6C702.8 334 707.6 321.7 707.6 304.7C707.6 287.7 702.9 275.3 693.5 267.5C684.3 259.5 669.6 255.5 649.4 255.5H623V353ZM623 242.9H647C683.8 242.9 702.2 227.1 702.2 195.5C702.2 177.5 696 165.6 683.6 159.8C673 154.6 658.3 152 639.5 152H623V242.9ZM883.876 293.3C883.876 271.7 880.576 255.7 873.976 245.3C867.376 234.7 856.576 229.4 841.576 229.4C826.776 229.4 815.776 234.5 808.576 244.7C801.576 254.7 798.076 270.8 798.076 293C798.076 315.2 801.576 331.2 808.576 341C815.576 350.6 826.276 355.4 840.676 355.4C855.276 355.4 866.076 350.5 873.076 340.7C880.276 330.7 883.876 314.9 883.876 293.3ZM767.776 293.3C767.776 269.7 774.476 251.1 787.876 237.5C801.276 223.7 818.976 216.8 840.976 216.8C863.176 216.8 880.876 223.5 894.076 236.9C907.276 250.3 913.876 269 913.876 293C913.876 317 907.276 335.5 894.076 348.5C880.876 361.3 863.076 367.7 840.676 367.7C818.476 367.7 800.776 361.2 787.576 348.2C774.376 335.2 767.776 316.9 767.776 293.3ZM1058.49 293.3C1058.49 271.7 1055.19 255.7 1048.59 245.3C1041.99 234.7 1031.19 229.4 1016.19 229.4C1001.39 229.4 990.385 234.5 983.185 244.7C976.185 254.7 972.685 270.8 972.685 293C972.685 315.2 976.185 331.2 983.185 341C990.185 350.6 1000.89 355.4 1015.29 355.4C1029.89 355.4 1040.69 350.5 1047.69 340.7C1054.89 330.7 1058.49 314.9 1058.49 293.3ZM942.385 293.3C942.385 269.7 949.085 251.1 962.485 237.5C975.885 223.7 993.585 216.8 1015.59 216.8C1037.79 216.8 1055.49 223.5 1068.69 236.9C1081.89 250.3 1088.49 269 1088.49 293C1088.49 317 1081.89 335.5 1068.69 348.5C1055.49 361.3 1037.69 367.7 1015.29 367.7C993.085 367.7 975.385 361.2 962.185 348.2C948.985 335.2 942.385 316.9 942.385 293.3ZM1122.69 140H1172.79V347.3L1197.09 353.9V365H1120.89V353.9L1144.29 347.6V154.4L1122.69 150.8V140Z" fill="#2FA4FF"/>
<path d="M1233.35 140H1323.65C1355.45 140 1378.25 145.1 1392.05 155.3C1405.85 165.3 1412.75 181.1 1412.75 202.7C1412.75 228.9 1403.85 246.6 1386.05 255.8C1370.25 263.8 1348.65 267.8 1321.25 267.8H1293.95V347L1324.55 353.9V365H1233.35V353.9L1262.45 347V158L1233.35 151.1V140ZM1293.95 255.8H1327.55C1344.55 255.8 1357.15 251.6 1365.35 243.2C1373.75 234.8 1377.95 221.7 1377.95 203.9C1377.95 186.1 1373.75 173 1365.35 164.6C1357.15 156.2 1344.55 152 1327.55 152H1293.95V255.8ZM1439.68 219.5H1489.48V262.1C1493.48 250.1 1499.68 240.1 1508.08 232.1C1516.48 223.9 1526.68 219.8 1538.68 219.8C1546.08 219.8 1554.98 222.5 1565.38 227.9V263.9H1553.68L1544.38 239.3C1540.58 237.3 1536.28 236.3 1531.48 236.3C1522.68 236.3 1513.78 241.5 1504.78 251.9C1495.98 262.1 1491.58 273.1 1491.58 284.9V347.6L1513.78 353.9V365H1440.28V353.9L1463.08 347.6V234.5L1439.68 230.3V219.5ZM1713.07 314.3V348.5C1701.67 361.5 1683.27 368 1657.87 368C1632.67 368 1613.97 361.4 1601.77 348.2C1589.57 334.8 1583.47 316.3 1583.47 292.7C1583.47 269.1 1589.87 250.6 1602.67 237.2C1615.67 223.6 1633.07 216.8 1654.87 216.8C1667.87 216.8 1678.67 219.2 1687.27 224C1696.07 228.8 1702.37 235.2 1706.17 243.2C1712.17 256.4 1715.17 270.3 1715.17 284.9H1613.47C1613.47 307.5 1616.07 324.7 1621.27 336.5C1627.27 349.9 1639.07 356.6 1656.67 356.6C1662.87 356.6 1668.77 355.8 1674.37 354.2C1680.17 352.4 1684.37 350.7 1686.97 349.1C1689.57 347.5 1690.87 346.5 1690.87 346.1L1701.97 314.3H1713.07ZM1654.27 228.5C1637.27 228.5 1625.67 236.3 1619.47 251.9C1616.47 258.9 1614.67 266.6 1614.07 275H1689.07C1689.07 244 1677.47 228.5 1654.27 228.5ZM1861.8 322.1C1861.8 335.5 1856.8 346.3 1846.8 354.5C1836.8 362.5 1821.4 366.5 1800.6 366.5C1780 366.5 1763.9 361 1752.3 350V315.2H1764L1772.7 344.6C1779.7 351.6 1790.9 355.1 1806.3 355.1C1817.1 355.1 1825.3 352.7 1830.9 347.9C1836.5 343.1 1839.3 337.3 1839.3 330.5C1839.3 323.7 1836.4 318.4 1830.6 314.6C1824.8 310.8 1813.3 306.2 1796.1 300.8C1779.1 295.2 1767.2 289.4 1760.4 283.4C1753.6 277.4 1750.2 268.5 1750.2 256.7C1750.2 244.7 1755.1 234.8 1764.9 227C1774.7 219.2 1789.1 215.3 1808.1 215.3C1827.1 215.3 1842.4 219.8 1854 228.8V263.3H1842.3L1833 234.5C1826.4 229.3 1817.6 226.7 1806.6 226.7C1784.8 226.7 1773.9 234.5 1773.9 250.1C1773.9 255.9 1777 261 1783.2 265.4C1789.6 269.6 1801.2 274.3 1818 279.5C1834.8 284.7 1846.3 290.6 1852.5 297.2C1858.7 303.6 1861.8 311.9 1861.8 322.1ZM2002.72 322.1C2002.72 335.5 1997.72 346.3 1987.72 354.5C1977.72 362.5 1962.32 366.5 1941.52 366.5C1920.92 366.5 1904.82 361 1893.22 350V315.2H1904.92L1913.62 344.6C1920.62 351.6 1931.82 355.1 1947.22 355.1C1958.02 355.1 1966.22 352.7 1971.82 347.9C1977.42 343.1 1980.22 337.3 1980.22 330.5C1980.22 323.7 1977.32 318.4 1971.52 314.6C1965.72 310.8 1954.22 306.2 1937.02 300.8C1920.02 295.2 1908.12 289.4 1901.32 283.4C1894.52 277.4 1891.12 268.5 1891.12 256.7C1891.12 244.7 1896.02 234.8 1905.82 227C1915.62 219.2 1930.02 215.3 1949.02 215.3C1968.02 215.3 1983.32 219.8 1994.92 228.8V263.3H1983.22L1973.92 234.5C1967.32 229.3 1958.52 226.7 1947.52 226.7C1925.72 226.7 1914.82 234.5 1914.82 250.1C1914.82 255.9 1917.92 261 1924.12 265.4C1930.52 269.6 1942.12 274.3 1958.92 279.5C1975.72 284.7 1987.22 290.6 1993.42 297.2C1999.62 303.6 2002.72 311.9 2002.72 322.1Z" fill="#BEBEBE"/>
</g>
<defs>
<clipPath id="clip0_194_13">
<rect width="2017" height="512" fill="white"/>
</clipPath>
</defs>
</svg>
