<svg width="512" height="512" viewBox="0 0 512 512" fill="none" xmlns="http://www.w3.org/2000/svg">
<path d="M399.364 27.2485H242.162C232.213 27.2485 222.657 31.2096 215.618 38.2493L10.9961 242.833C-3.66536 257.495 -3.66536 281.261 10.9961 295.941L168.198 453.143C182.859 467.805 206.626 467.805 221.287 453.143L425.909 248.559C432.948 241.501 436.909 231.945 436.909 221.977V64.7938C436.909 44.05 420.108 27.2485 399.364 27.2485ZM333.66 158.657C318.116 158.657 305.501 146.042 305.501 130.498C305.501 114.954 318.116 102.339 333.66 102.339C349.204 102.339 361.819 114.954 361.819 130.498C361.819 146.042 349.204 158.657 333.66 158.657Z" fill="black"/>
<path d="M474.455 64.7939L474.436 239.548C474.436 248.203 471.001 256.519 464.862 262.639L256.937 470.564L260.128 473.756C274.789 488.417 298.555 488.417 313.217 473.756L500.981 286.029C508.039 278.99 512 269.434 512 259.485V102.339C512 81.5954 495.199 64.7939 474.455 64.7939Z" fill="black"/>
</svg>
